<svg xmlns="http://www.w3.org/2000/svg" viewBox="0 0 700 500" role="img" aria-label="Albania flag">
  <rect width="700" height="500" fill="#e41e20"/>
  <path fill="#111" d="M350 135l35 58 64-33-25 67 73 12-68 31 51 51-74-9 9 73-50-52-31 69-12-74-67 26 32-65-58-35 66-14-42-55 69 16 28-64z"/>
  <path fill="#111" d="M276 197c-42 15-70 50-79 87 35-20 74-24 112-8l-33-79zm148 0 33 79c38-16 77-12 112 8-9-37-37-72-79-87l-66 0zm-74 50c-38 0-69 31-69 69 0 55 69 103 69 103s69-48 69-103c0-38-31-69-69-69z"/>
</svg>
